<svg width="16" height="32" viewBox="0 0 16 32" fill="none" xmlns="http://www.w3.org/2000/svg">
<path d="M15.7891 2.00091C15.7887 2.53116 15.5776 3.03953 15.2025 3.41424L4.97313 13.6436C4.6635 13.9531 4.41789 14.3206 4.25032 14.7251C4.08275 15.1296 3.9965 15.5631 3.9965 16.0009C3.9965 16.4387 4.08275 16.8722 4.25032 17.2767C4.41789 17.6812 4.6635 18.0487 4.97313 18.3582L15.1891 28.5742C15.5534 28.9514 15.755 29.4567 15.7505 29.981C15.7459 30.5054 15.5356 31.0071 15.1648 31.3779C14.7939 31.7487 14.2923 31.959 13.7679 31.9636C13.2435 31.9681 12.7383 31.7666 12.3611 31.4022L2.14513 21.1942C0.77148 19.8179 0 17.9528 0 16.0082C0 14.0637 0.77148 12.1986 2.14513 10.8222L12.3745 0.586241C12.6542 0.306353 13.0106 0.115725 13.3987 0.03848C13.7868 -0.0387655 14.1891 0.000842646 14.5546 0.152293C14.9202 0.303743 15.2326 0.560228 15.4524 0.889293C15.6721 1.21836 15.7893 1.60521 15.7891 2.00091Z" fill="#373C42"/>
</svg>
