<svg width="32" height="32" viewBox="0 0 32 32" fill="none" xmlns="http://www.w3.org/2000/svg">
<path d="M25.417 12.3899L22.7904 13.9049C23.2009 15.2467 23.2009 16.6792 22.7904 18.021L25.417 19.5359C25.7777 19.2987 26.1743 19.1201 26.5916 19.0068L29.7549 18.178C30.704 17.9296 31.6763 18.4918 31.9265 19.4336C32.1767 20.3755 31.6103 21.3404 30.6612 21.5886L27.5014 22.4175C27.2697 22.4803 27.1309 22.7152 27.1886 22.9466L28.0238 26.0857C28.3019 27.0198 27.7642 28.0006 26.8229 28.2765C25.8816 28.5524 24.8932 28.0188 24.6152 27.0847C24.6054 27.0518 24.5966 27.0185 24.5887 26.9851L23.7535 23.8495C23.6431 23.4345 23.6011 23.0045 23.629 22.5762L20.9331 21.019C20.0502 21.8694 18.9594 22.4771 17.7681 22.7825V25.9392C18.1559 26.1293 18.5095 26.3814 18.8148 26.6852L21.1251 28.9778C21.822 29.664 21.8263 30.7808 21.1349 31.4723C20.4435 32.1638 19.318 32.1682 18.6212 31.4821L16.311 29.1894C16.1399 29.019 15.862 29.0185 15.6902 29.1882L15.6889 29.1894L13.3786 31.4821C12.6852 32.1716 11.5598 32.1728 10.8649 31.4847C10.17 30.7966 10.1689 29.6798 10.8622 28.9902L13.1725 26.6976C13.4783 26.3929 13.8325 26.1402 14.221 25.9498V22.7931C13.0297 22.4877 11.9389 21.8799 11.056 21.0295L8.35648 22.5849C8.38438 23.0133 8.34241 23.4432 8.23205 23.8582L7.39683 26.9938C7.17428 27.9424 6.2189 28.5324 5.26301 28.3115C4.30713 28.0907 3.71263 27.1426 3.93518 26.194C3.94305 26.1606 3.95185 26.1273 3.96166 26.0944L4.79688 22.957C4.85461 22.7256 4.71577 22.4909 4.48409 22.428L1.32434 21.5991C0.375412 21.3508 -0.191098 20.386 0.0591854 19.4441C0.309468 18.5023 1.28178 17.9401 2.23079 18.1884L5.3923 19.0173C5.81042 19.1302 6.20758 19.3088 6.56872 19.5464L9.19531 18.0315C8.78482 16.6897 8.78482 15.2571 9.19531 13.9153L6.57936 12.3899C6.21864 12.6271 5.82206 12.8057 5.4047 12.919L2.24143 13.7478C1.29242 13.9963 0.32011 13.4341 0.0698268 12.4922C-0.180456 11.5504 0.386053 10.5855 1.33515 10.3372L4.4949 9.50837C4.72658 9.44551 4.86542 9.21069 4.80769 8.97928L3.97247 5.84018C3.69445 4.90607 4.23222 3.92523 5.17344 3.64933C6.11466 3.37344 7.10314 3.9071 7.38116 4.84113C7.39096 4.87406 7.39976 4.90732 7.40764 4.94074L8.24286 8.07635C8.35321 8.49135 8.39519 8.92132 8.36729 9.34963L11.0632 10.9069C11.9441 10.0584 13.0315 9.45091 14.2193 9.14334L14.2051 6.14534C13.8148 5.95036 13.4598 5.69226 13.1548 5.38169L10.8445 3.08906C10.1068 2.44656 10.0336 1.33234 10.6811 0.600285C11.3285 -0.131772 12.4513 -0.204361 13.189 0.438143C13.2442 0.486121 13.2962 0.537507 13.345 0.591887L15.6552 2.88451C15.8279 3.05464 16.1065 3.05464 16.279 2.88451L18.5893 0.591887C19.2841 -0.0971812 20.4104 -0.0968474 21.1047 0.592803C21.7991 1.28237 21.7988 2.4 21.1038 3.08906L18.7918 5.38169C18.488 5.68344 18.137 5.93414 17.7522 6.12414L17.7753 9.1292C18.9689 9.4342 20.0621 10.0419 20.9475 10.8927L23.6434 9.3355C23.6155 8.90719 23.6574 8.47722 23.7678 8.06221L24.603 4.92661C24.8256 3.97803 25.7809 3.38807 26.7368 3.60892C27.6927 3.82977 28.2872 4.77785 28.0647 5.72643C28.0568 5.75986 28.048 5.79312 28.0382 5.82605L27.203 8.9634C27.1452 9.19472 27.2841 9.42954 27.5157 9.49248L30.6755 10.3213C31.6246 10.5697 32.1911 11.5346 31.9408 12.4763C31.6905 13.4181 30.7182 13.9804 29.7692 13.732L26.6077 12.9032C26.1856 12.7966 25.7835 12.6233 25.417 12.3899ZM19.5524 15.9628C19.5524 14.0149 17.9612 12.4358 15.9982 12.4358C14.0352 12.4358 12.444 14.0149 12.444 15.9628C12.444 17.9108 14.0352 19.4899 15.9982 19.4899C17.9612 19.4899 19.5524 17.9108 19.5524 15.9628Z" fill="currentColor"/>
</svg>
