<svg width="25" height="25" viewBox="0 0 25 25" fill="none" xmlns="http://www.w3.org/2000/svg">
<circle cx="12.2605" cy="12.2598" r="9" fill="white" stroke="#D9D9D9" stroke-width="2"/>
<path d="M7.98614 16.7628C7.55891 16.3356 7.55891 15.6432 7.98614 15.216L15.2159 7.98629C15.6431 7.55906 16.3354 7.55906 16.7627 7.98629C17.1899 8.41351 17.1899 9.10586 16.7627 9.53308L9.53293 16.7628C9.10571 17.19 8.41336 17.19 7.98614 16.7628Z" fill="#D9D9D9"/>
<path d="M15.2158 16.7628L7.98612 9.53308C7.5589 9.10586 7.5589 8.41351 7.98612 7.98629C8.41335 7.55906 9.10569 7.55906 9.53292 7.98629L16.7626 15.216C17.1899 15.6432 17.1899 16.3356 16.7626 16.7628C16.3354 17.19 15.6431 17.19 15.2158 16.7628Z" fill="#D9D9D9"/>
</svg>
