<svg width="27" height="32" viewBox="0 0 27 32" fill="none" xmlns="http://www.w3.org/2000/svg">
<path d="M24.3221 32C24.113 32.0002 23.9068 31.9527 23.7195 31.8612C23.5322 31.7698 23.3689 31.6369 23.2425 31.4729C23.116 31.3089 23.0298 31.1183 22.9906 30.916C22.9514 30.7137 22.9603 30.5053 23.0165 30.3069C23.1736 29.7479 23.351 29.2289 23.5271 28.7179C25.2674 25.1369 23.7709 19.8014 21.826 17.3052C20.1671 14.8901 19.1906 12.0835 18.9968 9.17367C18.8031 6.26385 19.399 3.35566 20.7236 0.747788C20.8797 0.433506 21.1549 0.192211 21.4898 0.0758893C21.8248 -0.0404324 22.1928 -0.0224707 22.5144 0.125905C22.8361 0.27428 23.0857 0.541193 23.2095 0.86914C23.3333 1.19709 23.3214 1.55982 23.1763 1.87919C22.044 4.07839 21.5328 6.53708 21.6962 8.99774C21.8597 11.4584 22.6918 13.8305 24.1054 15.8656C26.374 18.7167 28.1495 25.3557 26.0922 29.5691C25.9324 30.0374 25.7699 30.5137 25.625 31.0247C25.5455 31.305 25.3752 31.552 25.14 31.7281C24.9047 31.9042 24.6175 31.9997 24.3221 32ZM14.8416 32C14.6325 32.0002 14.4263 31.9527 14.239 31.8612C14.0517 31.7698 13.8884 31.6369 13.7619 31.4729C13.6355 31.3089 13.5493 31.1183 13.5101 30.916C13.4709 30.7137 13.4797 30.5053 13.536 30.3069C13.6931 29.7479 13.8705 29.2289 14.0466 28.7179C15.7869 25.1369 14.2903 19.8014 12.3455 17.3052C10.6865 14.8901 9.71003 12.0835 9.51629 9.17367C9.32254 6.26385 9.91853 3.35566 11.243 0.747788C11.3991 0.433506 11.6743 0.192211 12.0093 0.0758893C12.3443 -0.0404324 12.7122 -0.0224707 13.0339 0.125905C13.3556 0.27428 13.6052 0.541193 13.729 0.86914C13.8528 1.19709 13.8409 1.55982 13.6958 1.87919C12.5635 4.07839 12.0522 6.53708 12.2157 8.99774C12.3792 11.4584 13.2113 13.8305 14.6249 15.8656C16.8934 18.7167 18.669 25.3557 16.6117 29.5691C16.4519 30.0374 16.2894 30.5137 16.1445 31.0247C16.065 31.305 15.8947 31.552 15.6594 31.7281C15.4242 31.9042 15.137 31.9997 14.8416 32ZM5.36105 32C5.152 32.0002 4.94575 31.9527 4.75844 31.8612C4.57114 31.7698 4.40787 31.6369 4.28141 31.4729C4.15496 31.3089 4.06875 31.1183 4.02955 30.916C3.99035 30.7137 3.99921 30.5053 4.05544 30.3069C4.21255 29.7479 4.38997 29.2289 4.56604 28.7179C6.30639 25.1369 4.80982 19.8014 2.86496 17.3052C1.206 14.8901 0.229509 12.0835 0.0357629 9.17367C-0.157983 6.26385 0.438002 3.35566 1.76251 0.747788C1.91862 0.433506 2.19381 0.192211 2.52878 0.0758893C2.86376 -0.0404324 3.23171 -0.0224707 3.55337 0.125905C3.87504 0.27428 4.12466 0.541193 4.24846 0.86914C4.37226 1.19709 4.36034 1.55982 4.21526 1.87919C3.08293 4.07839 2.57172 6.53708 2.73518 8.99774C2.89864 11.4584 3.73074 13.8305 5.14435 15.8656C7.4129 18.7167 9.18847 25.3557 7.1312 29.5691C6.97138 30.0374 6.80886 30.5137 6.66394 31.0247C6.58447 31.305 6.41414 31.552 6.17892 31.7281C5.94369 31.9042 5.65648 31.9997 5.36105 32Z" fill="currentColor"/>
</svg>
