<svg width="48" height="48" viewBox="0 0 48 48" fill="none" xmlns="http://www.w3.org/2000/svg">
<g clip-path="url(#clip0_587_1827)">
<path d="M39.5628 42.5616C38.7948 42.5616 38.028 42.2688 37.4412 41.6832L6.3168 10.5588C5.1444 9.3876 5.1444 7.488 6.3168 6.3168C7.4892 5.1444 9.3876 5.1444 10.5588 6.3168L41.6844 37.4412C42.8568 38.6124 42.8568 40.512 41.6844 41.6832C41.0988 42.2688 40.3308 42.5616 39.5628 42.5616Z" fill="currentColor"/>
<path d="M8.43718 42.5616C7.66918 42.5616 6.90238 42.2688 6.31558 41.6832C5.14318 40.512 5.14318 38.6124 6.31558 37.4412L37.4412 6.3168C38.6136 5.1444 40.512 5.1444 41.6832 6.3168C42.8556 7.488 42.8556 9.3876 41.6832 10.5588L10.5576 41.6832C9.97198 42.2688 9.20518 42.5616 8.43718 42.5616Z" fill="currentColor"/>
</g>
<defs>
<clipPath id="clip0_587_1827">
<rect width="48" height="48" fill="currentColor"/>
</clipPath>
</defs>
</svg>
