<svg width="24" height="24" viewBox="0 0 24 24" fill="none" xmlns="http://www.w3.org/2000/svg">
<rect width="24" height="24" rx="10" fill="#D9D9D9"/>
<g clip-path="url(#clip0_528_2165)">
<path d="M12.2857 19.5805C11.5755 19.5805 11 19.005 11 18.2948V6.27595C11 5.56572 11.5755 4.99023 12.2857 4.99023C12.9959 4.99023 13.5714 5.56572 13.5714 6.27595V18.2948C13.5714 19.005 12.9959 19.5805 12.2857 19.5805Z" fill="#373C42"/>
<path d="M18.2952 13.5714H6.27631C5.56609 13.5714 4.9906 12.9959 4.9906 12.2857C4.9906 11.5755 5.56609 11 6.27631 11H18.2952C19.0054 11 19.5809 11.5755 19.5809 12.2857C19.5809 12.9959 19.0054 13.5714 18.2952 13.5714Z" fill="#373C42"/>
</g>
<defs>
<clipPath id="clip0_528_2165">
<rect width="20.5714" height="20.5714" fill="white" transform="translate(2 2)"/>
</clipPath>
</defs>
</svg>
