<svg width="31" height="32" viewBox="0 0 31 32" fill="none" xmlns="http://www.w3.org/2000/svg">
<path d="M24 16C22.5952 16.0016 21.2148 15.6329 19.9979 14.9309C18.781 14.229 17.7707 13.2186 17.0688 12.0017C16.367 10.7848 15.9983 9.40435 16 7.99953C16.0017 6.59472 16.3738 5.21518 17.0787 4H5.656L5.6 3.53067C5.4851 2.55813 5.01741 1.66154 4.28558 1.01081C3.55375 0.360072 2.60863 0.000417115 1.62933 0L1.33333 0C0.979711 0 0.640573 0.140476 0.390524 0.390524C0.140476 0.640573 0 0.979711 0 1.33333C0 1.68696 0.140476 2.02609 0.390524 2.27614C0.640573 2.52619 0.979711 2.66667 1.33333 2.66667H1.62933C1.95591 2.66671 2.27112 2.78661 2.51516 3.00362C2.75921 3.22063 2.91512 3.51967 2.95333 3.844L4.788 19.444C4.97847 21.0664 5.75797 22.5624 6.97854 23.648C8.19912 24.7337 9.77581 25.3334 11.4093 25.3333H25.3333C25.687 25.3333 26.0261 25.1929 26.2761 24.9428C26.5262 24.6928 26.6667 24.3536 26.6667 24C26.6667 23.6464 26.5262 23.3072 26.2761 23.0572C26.0261 22.8071 25.687 22.6667 25.3333 22.6667H11.4093C10.5838 22.6646 9.77921 22.4072 9.10579 21.9298C8.43237 21.4524 7.92316 20.7783 7.648 20H23.5427C25.1057 20.0001 26.6191 19.451 27.8184 18.4486C29.0177 17.4462 29.8267 16.0543 30.104 14.516L30.4213 12.7573C29.6797 13.7629 28.7122 14.5802 27.5969 15.1434C26.4815 15.7066 25.2495 16 24 16Z" fill="white"/>
<path d="M9.33341 31.9993C10.8062 31.9993 12.0001 30.8054 12.0001 29.3327C12.0001 27.8599 10.8062 26.666 9.33341 26.666C7.86066 26.666 6.66675 27.8599 6.66675 29.3327C6.66675 30.8054 7.86066 31.9993 9.33341 31.9993Z" fill="white"/>
<path d="M22.6667 31.9993C24.1394 31.9993 25.3333 30.8054 25.3333 29.3327C25.3333 27.8599 24.1394 26.666 22.6667 26.666C21.1939 26.666 20 27.8599 20 29.3327C20 30.8054 21.1939 31.9993 22.6667 31.9993Z" fill="white"/>
<path d="M20.0001 9.33268H22.6667V11.9993C22.6667 12.353 22.8072 12.6921 23.0573 12.9422C23.3073 13.1922 23.6465 13.3327 24.0001 13.3327C24.3537 13.3327 24.6928 13.1922 24.9429 12.9422C25.1929 12.6921 25.3334 12.353 25.3334 11.9993V9.33268H28.0001C28.3537 9.33268 28.6928 9.19221 28.9429 8.94216C29.1929 8.69211 29.3334 8.35297 29.3334 7.99935C29.3334 7.64573 29.1929 7.30659 28.9429 7.05654C28.6928 6.80649 28.3537 6.66602 28.0001 6.66602H25.3334V3.99935C25.3334 3.64573 25.1929 3.30659 24.9429 3.05654C24.6928 2.80649 24.3537 2.66602 24.0001 2.66602C23.6465 2.66602 23.3073 2.80649 23.0573 3.05654C22.8072 3.30659 22.6667 3.64573 22.6667 3.99935V6.66602H20.0001C19.6465 6.66602 19.3073 6.80649 19.0573 7.05654C18.8072 7.30659 18.6667 7.64573 18.6667 7.99935C18.6667 8.35297 18.8072 8.69211 19.0573 8.94216C19.3073 9.19221 19.6465 9.33268 20.0001 9.33268Z" fill="white"/>
</svg>
