<svg width="100%" height="100%" viewBox="0 0 40 44" fill="none" xmlns="http://www.w3.org/2000/svg">
<path d="M38.1801 9.0905H24.5552L25.0389 5.22885C25.1516 4.3198 25.9279 3.6362 26.8424 3.6362H32.724C33.7294 3.6362 34.5421 2.82169 34.5421 1.8181C34.5421 0.814509 33.7294 0 32.724 0H26.8424C24.0989 0 21.7736 2.05263 21.4299 4.77615L20.89 9.0905H1.8181C0.81269 9.0905 0 9.90501 0 10.9086C0 11.9122 0.81269 12.7267 1.8181 12.7267H2.92896L5.63065 35.6093C6.17245 40.1836 10.0541 43.6344 14.6593 43.6344H25.3407C29.9459 43.6344 33.8276 40.1855 34.3693 35.6093L37.071 12.7267H38.1819C39.1873 12.7267 40 11.9122 40 10.9086C40 9.90501 39.1855 9.0905 38.1801 9.0905Z" fill="currentColor"/>
<path d="M19.7345 16.3652C14.7352 18.2606 11.574 18.1134 7.5863 16.9908L10.3713 36.6848C10.5073 37.4055 10.3713 39.3227 12.5185 39.7495H27.3417C29.6553 39.7495 30.0666 36.6848 30.0666 36.6848L33.0367 15.7071C28.7435 14.544 24.5194 14.6009 19.7345 16.3652Z" fill="white"/>
</svg>
